<svg xmlns="http://www.w3.org/2000/svg" version="1.1" xmlns:xlink="http://www.w3.org/1999/xlink" width="1000" height="1000"><style>
    #light-icon {
      display: inline;
    }
    #dark-icon {
      display: none;
    }

    @media (prefers-color-scheme: dark) {
      #light-icon {
        display: none;
      }
      #dark-icon {
        display: inline;
      }
    }
  </style><g id="light-icon"><svg xmlns="http://www.w3.org/2000/svg" version="1.1" xmlns:xlink="http://www.w3.org/1999/xlink" width="1000" height="1000"><g><g transform="matrix(1.953125,0,0,1.953125,0,0)"><svg xmlns="http://www.w3.org/2000/svg" viewBox="0 0 512 512" width="512" height="512"><g font-family="Noto Serif" font-size="48" letter-spacing="-5">
    <path d="M239.1 290.22q-3.827 3.567-8.36 3.07-4.499-.531-8.754-5.095-4.583-4.915-4.872-9.306t3.433-7.86q3.406-3.176 7.3-2.87 3.93.273 7.826 4.45l1.506 1.615-11.69 10.901q3.638 3.761 6.574 4.305 2.938.476 5.466-1.88 1.825-1.703 2.401-3.619.58-1.983.327-3.52.344-.124.85-.004.505.12.93.576.655.702.74 2.131.087 1.43-.726 3.303-.845 1.838-2.951 3.802zm-7.234-14.585q-2.62-2.809-5.068-3.675-2.447-.935-4.553 1.03-1.93 1.8-1.513 4.43.42 2.561 3.06 5.744zM204.34 272.857q-2.488-2.668-2.44-5.01.115-2.339 3.134-5.154l11.726-10.934-2.488-2.668 1.404-1.31q.59.632 1.555 1.176 1.001.51 2.122.515 1.188.008 2.46-.457 1.274-.465 2.837-1.464l1.506 1.615-4.318 4.027 4.288 4.599-2 1.866-4.29-4.6-11.83 11.033q-1.79 1.67-1.945 3.192t.958 2.717q.59.631 1.15 1.093.562.46 1.19.924l-1.544 1.44q-.636-.26-1.663-1.008-1.026-.75-1.812-1.592M186.251 291.922q-5.184 0-8.16-3.312t-2.976-10.08q0-6.72 2.832-9.984 2.88-3.312 8.448-3.312 5.184 0 8.16 3.312 2.976 3.264 2.976 9.984 0 6.768-2.88 10.08-2.832 3.312-8.4 3.312m.096-2.496q2.4 0 3.84-1.2 1.44-1.248 2.064-3.696t.624-6q0-5.376-1.488-8.064t-5.088-2.688-5.088 2.688q-1.44 2.688-1.44 8.064t1.488 8.16q1.488 2.736 5.088 2.736M138.675 291.442v-2.016h.624q1.104 0 1.968-.24.912-.24 1.44-.96.528-.768.528-2.256v-23.52q0-1.44-.576-2.112-.528-.72-1.44-.912-.864-.24-1.92-.24h-.624v-2.016h8.784l17.184 26.544V262.45q0-1.44-.576-2.112-.528-.72-1.44-.912-.864-.24-1.92-.24h-.624v-2.016h12.048v2.016h-.624q-1.056 0-1.968.24t-1.44.96-.528 2.256v28.8h-3.408l-18-27.648v22.176q0 1.488.528 2.256.528.72 1.44.96t1.968.24h.624v2.016z" style="-inkscape-font-specification:&quot;Noto Serif, Normal&quot;" transform="matrix(4.5 0 0 4.5 -602.288 -961.03)"></path>
  </g></svg></g></g></svg></g><g id="dark-icon"><svg xmlns="http://www.w3.org/2000/svg" version="1.1" xmlns:xlink="http://www.w3.org/1999/xlink" width="1000" height="1000"><g clip-path="url(#SvgjsClipPath1012)"><rect width="1000" height="1000" fill="#ffffff"></rect><g transform="matrix(1.3671875,0,0,1.3671875,150,150)"><svg xmlns="http://www.w3.org/2000/svg" viewBox="0 0 512 512" width="512" height="512"><g font-family="Noto Serif" font-size="48" letter-spacing="-5">
    <path d="M239.1 290.22q-3.827 3.567-8.36 3.07-4.499-.531-8.754-5.095-4.583-4.915-4.872-9.306t3.433-7.86q3.406-3.176 7.3-2.87 3.93.273 7.826 4.45l1.506 1.615-11.69 10.901q3.638 3.761 6.574 4.305 2.938.476 5.466-1.88 1.825-1.703 2.401-3.619.58-1.983.327-3.52.344-.124.85-.004.505.12.93.576.655.702.74 2.131.087 1.43-.726 3.303-.845 1.838-2.951 3.802zm-7.234-14.585q-2.62-2.809-5.068-3.675-2.447-.935-4.553 1.03-1.93 1.8-1.513 4.43.42 2.561 3.06 5.744zM204.34 272.857q-2.488-2.668-2.44-5.01.115-2.339 3.134-5.154l11.726-10.934-2.488-2.668 1.404-1.31q.59.632 1.555 1.176 1.001.51 2.122.515 1.188.008 2.46-.457 1.274-.465 2.837-1.464l1.506 1.615-4.318 4.027 4.288 4.599-2 1.866-4.29-4.6-11.83 11.033q-1.79 1.67-1.945 3.192t.958 2.717q.59.631 1.15 1.093.562.46 1.19.924l-1.544 1.44q-.636-.26-1.663-1.008-1.026-.75-1.812-1.592M186.251 291.922q-5.184 0-8.16-3.312t-2.976-10.08q0-6.72 2.832-9.984 2.88-3.312 8.448-3.312 5.184 0 8.16 3.312 2.976 3.264 2.976 9.984 0 6.768-2.88 10.08-2.832 3.312-8.4 3.312m.096-2.496q2.4 0 3.84-1.2 1.44-1.248 2.064-3.696t.624-6q0-5.376-1.488-8.064t-5.088-2.688-5.088 2.688q-1.44 2.688-1.44 8.064t1.488 8.16q1.488 2.736 5.088 2.736M138.675 291.442v-2.016h.624q1.104 0 1.968-.24.912-.24 1.44-.96.528-.768.528-2.256v-23.52q0-1.44-.576-2.112-.528-.72-1.44-.912-.864-.24-1.92-.24h-.624v-2.016h8.784l17.184 26.544V262.45q0-1.44-.576-2.112-.528-.72-1.44-.912-.864-.24-1.92-.24h-.624v-2.016h12.048v2.016h-.624q-1.056 0-1.968.24t-1.44.96-.528 2.256v28.8h-3.408l-18-27.648v22.176q0 1.488.528 2.256.528.72 1.44.96t1.968.24h.624v2.016z" style="-inkscape-font-specification:&quot;Noto Serif, Normal&quot;" transform="matrix(4.5 0 0 4.5 -602.288 -961.03)"></path>
  </g></svg></g></g><defs><clipPath id="SvgjsClipPath1012"><rect width="1000" height="1000" x="0" y="0" rx="350" ry="350"></rect></clipPath></defs></svg></g></svg>